<mxfile host="app.diagrams.net" modified="2023-01-26T13:48:01.652Z" agent="5.0 (Windows NT 10.0; Win64; x64) AppleWebKit/537.36 (KHTML, like Gecko) Chrome/109.0.0.0 Safari/537.36" etag="8kpf0Ocr467BL_zqAbuS" version="20.8.11" type="github">
  <diagram name="Pagina-1" id="WrolwRA_-2fl5xRkTejj">
    <mxGraphModel dx="2501" dy="764" grid="1" gridSize="10" guides="1" tooltips="1" connect="1" arrows="1" fold="1" page="1" pageScale="1" pageWidth="827" pageHeight="1169" math="0" shadow="0">
      <root>
        <mxCell id="0" />
        <mxCell id="1" parent="0" />
        <mxCell id="XwwDQdUueOQ3TiJVcm8K-5" value="Payment (Interface)" style="swimlane;fontStyle=1;align=center;verticalAlign=top;childLayout=stackLayout;horizontal=1;startSize=26;horizontalStack=0;resizeParent=1;resizeParentMax=0;resizeLast=0;collapsible=1;marginBottom=0;" vertex="1" parent="1">
          <mxGeometry x="250" y="150" width="210" height="60" as="geometry" />
        </mxCell>
        <mxCell id="XwwDQdUueOQ3TiJVcm8K-7" value="" style="line;strokeWidth=1;fillColor=none;align=left;verticalAlign=middle;spacingTop=-1;spacingLeft=3;spacingRight=3;rotatable=0;labelPosition=right;points=[];portConstraint=eastwest;strokeColor=inherit;" vertex="1" parent="XwwDQdUueOQ3TiJVcm8K-5">
          <mxGeometry y="26" width="210" height="8" as="geometry" />
        </mxCell>
        <mxCell id="XwwDQdUueOQ3TiJVcm8K-8" value="pay();" style="text;strokeColor=none;fillColor=none;align=left;verticalAlign=top;spacingLeft=4;spacingRight=4;overflow=hidden;rotatable=0;points=[[0,0.5],[1,0.5]];portConstraint=eastwest;" vertex="1" parent="XwwDQdUueOQ3TiJVcm8K-5">
          <mxGeometry y="34" width="210" height="26" as="geometry" />
        </mxCell>
        <mxCell id="XwwDQdUueOQ3TiJVcm8K-9" value="Notification (Interface)" style="swimlane;fontStyle=1;align=center;verticalAlign=top;childLayout=stackLayout;horizontal=1;startSize=26;horizontalStack=0;resizeParent=1;resizeParentMax=0;resizeLast=0;collapsible=1;marginBottom=0;" vertex="1" parent="1">
          <mxGeometry x="-740" y="40" width="210" height="130" as="geometry" />
        </mxCell>
        <mxCell id="XwwDQdUueOQ3TiJVcm8K-10" value="" style="line;strokeWidth=1;fillColor=none;align=left;verticalAlign=middle;spacingTop=-1;spacingLeft=3;spacingRight=3;rotatable=0;labelPosition=right;points=[];portConstraint=eastwest;strokeColor=inherit;" vertex="1" parent="XwwDQdUueOQ3TiJVcm8K-9">
          <mxGeometry y="26" width="210" height="8" as="geometry" />
        </mxCell>
        <mxCell id="XwwDQdUueOQ3TiJVcm8K-11" value="alertMe();&#xa;" style="text;strokeColor=none;fillColor=none;align=left;verticalAlign=top;spacingLeft=4;spacingRight=4;overflow=hidden;rotatable=0;points=[[0,0.5],[1,0.5]];portConstraint=eastwest;" vertex="1" parent="XwwDQdUueOQ3TiJVcm8K-9">
          <mxGeometry y="34" width="210" height="96" as="geometry" />
        </mxCell>
        <mxCell id="XwwDQdUueOQ3TiJVcm8K-41" style="edgeStyle=orthogonalEdgeStyle;rounded=0;orthogonalLoop=1;jettySize=auto;html=1;exitX=1;exitY=0;exitDx=0;exitDy=0;entryX=0.5;entryY=0;entryDx=0;entryDy=0;" edge="1" parent="1" source="XwwDQdUueOQ3TiJVcm8K-12" target="XwwDQdUueOQ3TiJVcm8K-5">
          <mxGeometry relative="1" as="geometry" />
        </mxCell>
        <mxCell id="XwwDQdUueOQ3TiJVcm8K-12" value="Order (Class or Interface?)" style="swimlane;fontStyle=1;align=center;verticalAlign=top;childLayout=stackLayout;horizontal=1;startSize=26;horizontalStack=0;resizeParent=1;resizeParentMax=0;resizeLast=0;collapsible=1;marginBottom=0;" vertex="1" parent="1">
          <mxGeometry x="-80" y="120" width="210" height="120" as="geometry" />
        </mxCell>
        <mxCell id="XwwDQdUueOQ3TiJVcm8K-13" value="" style="line;strokeWidth=1;fillColor=none;align=left;verticalAlign=middle;spacingTop=-1;spacingLeft=3;spacingRight=3;rotatable=0;labelPosition=right;points=[];portConstraint=eastwest;strokeColor=inherit;" vertex="1" parent="XwwDQdUueOQ3TiJVcm8K-12">
          <mxGeometry y="26" width="210" height="94" as="geometry" />
        </mxCell>
        <mxCell id="XwwDQdUueOQ3TiJVcm8K-33" style="edgeStyle=orthogonalEdgeStyle;rounded=0;orthogonalLoop=1;jettySize=auto;html=1;exitX=1;exitY=0;exitDx=0;exitDy=0;entryX=0;entryY=0.133;entryDx=0;entryDy=0;entryPerimeter=0;" edge="1" parent="1" source="XwwDQdUueOQ3TiJVcm8K-18" target="XwwDQdUueOQ3TiJVcm8K-21">
          <mxGeometry relative="1" as="geometry">
            <Array as="points">
              <mxPoint x="-530" y="280" />
              <mxPoint x="-440" y="280" />
              <mxPoint x="-440" y="335" />
            </Array>
          </mxGeometry>
        </mxCell>
        <mxCell id="XwwDQdUueOQ3TiJVcm8K-34" style="edgeStyle=orthogonalEdgeStyle;rounded=0;orthogonalLoop=1;jettySize=auto;html=1;exitX=1;exitY=0;exitDx=0;exitDy=0;" edge="1" parent="1" source="XwwDQdUueOQ3TiJVcm8K-18" target="XwwDQdUueOQ3TiJVcm8K-24">
          <mxGeometry relative="1" as="geometry">
            <Array as="points">
              <mxPoint x="-530" y="300" />
              <mxPoint x="-525" y="300" />
            </Array>
          </mxGeometry>
        </mxCell>
        <mxCell id="XwwDQdUueOQ3TiJVcm8K-18" value="Customer (User) (Class)&#xa;" style="swimlane;fontStyle=1;align=center;verticalAlign=top;childLayout=stackLayout;horizontal=1;startSize=26;horizontalStack=0;resizeParent=1;resizeParentMax=0;resizeLast=0;collapsible=1;marginBottom=0;" vertex="1" parent="1">
          <mxGeometry x="-740" y="275" width="210" height="230" as="geometry" />
        </mxCell>
        <mxCell id="XwwDQdUueOQ3TiJVcm8K-19" value="" style="line;strokeWidth=1;fillColor=none;align=left;verticalAlign=middle;spacingTop=-1;spacingLeft=3;spacingRight=3;rotatable=0;labelPosition=right;points=[];portConstraint=eastwest;strokeColor=inherit;" vertex="1" parent="XwwDQdUueOQ3TiJVcm8K-18">
          <mxGeometry y="26" width="210" height="204" as="geometry" />
        </mxCell>
        <mxCell id="XwwDQdUueOQ3TiJVcm8K-40" style="edgeStyle=orthogonalEdgeStyle;rounded=0;orthogonalLoop=1;jettySize=auto;html=1;exitX=0.5;exitY=0;exitDx=0;exitDy=0;entryX=0;entryY=0.058;entryDx=0;entryDy=0;entryPerimeter=0;" edge="1" parent="1" source="XwwDQdUueOQ3TiJVcm8K-21" target="XwwDQdUueOQ3TiJVcm8K-12">
          <mxGeometry relative="1" as="geometry" />
        </mxCell>
        <mxCell id="XwwDQdUueOQ3TiJVcm8K-21" value="Ristorante MrBurger (Main Class)&#xa;" style="swimlane;fontStyle=1;align=center;verticalAlign=top;childLayout=stackLayout;horizontal=1;startSize=26;horizontalStack=0;resizeParent=1;resizeParentMax=0;resizeLast=0;collapsible=1;marginBottom=0;" vertex="1" parent="1">
          <mxGeometry x="-350" y="315" width="330" height="150" as="geometry" />
        </mxCell>
        <mxCell id="XwwDQdUueOQ3TiJVcm8K-22" value="" style="line;strokeWidth=1;fillColor=none;align=left;verticalAlign=middle;spacingTop=-1;spacingLeft=3;spacingRight=3;rotatable=0;labelPosition=right;points=[];portConstraint=eastwest;strokeColor=inherit;" vertex="1" parent="XwwDQdUueOQ3TiJVcm8K-21">
          <mxGeometry y="26" width="330" height="124" as="geometry" />
        </mxCell>
        <mxCell id="XwwDQdUueOQ3TiJVcm8K-35" style="edgeStyle=orthogonalEdgeStyle;rounded=0;orthogonalLoop=1;jettySize=auto;html=1;exitX=1;exitY=0;exitDx=0;exitDy=0;entryX=0;entryY=0;entryDx=0;entryDy=0;" edge="1" parent="1" source="XwwDQdUueOQ3TiJVcm8K-24" target="XwwDQdUueOQ3TiJVcm8K-30">
          <mxGeometry relative="1" as="geometry">
            <Array as="points">
              <mxPoint x="-420" y="600" />
              <mxPoint x="-240" y="600" />
            </Array>
          </mxGeometry>
        </mxCell>
        <mxCell id="XwwDQdUueOQ3TiJVcm8K-24" value="Acquisti in app (Class)&#xa;" style="swimlane;fontStyle=1;align=center;verticalAlign=top;childLayout=stackLayout;horizontal=1;startSize=26;horizontalStack=0;resizeParent=1;resizeParentMax=0;resizeLast=0;collapsible=1;marginBottom=0;" vertex="1" parent="1">
          <mxGeometry x="-630" y="590" width="210" height="130" as="geometry" />
        </mxCell>
        <mxCell id="XwwDQdUueOQ3TiJVcm8K-25" value="" style="line;strokeWidth=1;fillColor=none;align=left;verticalAlign=middle;spacingTop=-1;spacingLeft=3;spacingRight=3;rotatable=0;labelPosition=right;points=[];portConstraint=eastwest;strokeColor=inherit;" vertex="1" parent="XwwDQdUueOQ3TiJVcm8K-24">
          <mxGeometry y="26" width="210" height="104" as="geometry" />
        </mxCell>
        <mxCell id="XwwDQdUueOQ3TiJVcm8K-37" style="edgeStyle=orthogonalEdgeStyle;rounded=0;orthogonalLoop=1;jettySize=auto;html=1;exitX=0.25;exitY=0;exitDx=0;exitDy=0;entryX=1.018;entryY=0.1;entryDx=0;entryDy=0;entryPerimeter=0;" edge="1" parent="1" source="XwwDQdUueOQ3TiJVcm8K-27" target="XwwDQdUueOQ3TiJVcm8K-21">
          <mxGeometry relative="1" as="geometry">
            <Array as="points">
              <mxPoint x="133" y="440" />
              <mxPoint y="440" />
              <mxPoint y="330" />
            </Array>
          </mxGeometry>
        </mxCell>
        <mxCell id="XwwDQdUueOQ3TiJVcm8K-27" value="Tip of Cost (Class)" style="swimlane;fontStyle=1;align=center;verticalAlign=top;childLayout=stackLayout;horizontal=1;startSize=26;horizontalStack=0;resizeParent=1;resizeParentMax=0;resizeLast=0;collapsible=1;marginBottom=0;" vertex="1" parent="1">
          <mxGeometry x="80" y="600" width="210" height="140" as="geometry" />
        </mxCell>
        <mxCell id="XwwDQdUueOQ3TiJVcm8K-28" value="" style="line;strokeWidth=1;fillColor=none;align=left;verticalAlign=middle;spacingTop=-1;spacingLeft=3;spacingRight=3;rotatable=0;labelPosition=right;points=[];portConstraint=eastwest;strokeColor=inherit;" vertex="1" parent="XwwDQdUueOQ3TiJVcm8K-27">
          <mxGeometry y="26" width="210" height="114" as="geometry" />
        </mxCell>
        <mxCell id="XwwDQdUueOQ3TiJVcm8K-36" style="edgeStyle=orthogonalEdgeStyle;rounded=0;orthogonalLoop=1;jettySize=auto;html=1;exitX=1;exitY=0;exitDx=0;exitDy=0;entryX=0;entryY=0;entryDx=0;entryDy=0;" edge="1" parent="1" source="XwwDQdUueOQ3TiJVcm8K-30" target="XwwDQdUueOQ3TiJVcm8K-27">
          <mxGeometry relative="1" as="geometry">
            <Array as="points">
              <mxPoint x="-30" y="600" />
            </Array>
          </mxGeometry>
        </mxCell>
        <mxCell id="XwwDQdUueOQ3TiJVcm8K-30" value="Check (?)" style="swimlane;fontStyle=1;align=center;verticalAlign=top;childLayout=stackLayout;horizontal=1;startSize=26;horizontalStack=0;resizeParent=1;resizeParentMax=0;resizeLast=0;collapsible=1;marginBottom=0;" vertex="1" parent="1">
          <mxGeometry x="-240" y="770" width="210" height="150" as="geometry" />
        </mxCell>
        <mxCell id="XwwDQdUueOQ3TiJVcm8K-31" value="" style="line;strokeWidth=1;fillColor=none;align=left;verticalAlign=middle;spacingTop=-1;spacingLeft=3;spacingRight=3;rotatable=0;labelPosition=right;points=[];portConstraint=eastwest;strokeColor=inherit;" vertex="1" parent="XwwDQdUueOQ3TiJVcm8K-30">
          <mxGeometry y="26" width="210" height="124" as="geometry" />
        </mxCell>
      </root>
    </mxGraphModel>
  </diagram>
</mxfile>
